<svg xmlns="http://www.w3.org/2000/svg" viewBox="0 0 904 904">
  <defs>
    <linearGradient id="rim" x1="0" y1="0" x2="0" y2="1">
      <stop offset="0" stop-color="#FFFFFF" stop-opacity="0.5"/>
      <stop offset="0.35" stop-color="#FFFFFF" stop-opacity="0.12"/>
      <stop offset="0.55" stop-color="#FFFFFF" stop-opacity="0"/>
    </linearGradient>
    <linearGradient id="sheen" x1="0" y1="0" x2="0" y2="1">
      <stop offset="0" stop-color="#FFFFFF" stop-opacity="0.10"/>
      <stop offset="0.30" stop-color="#FFFFFF" stop-opacity="0"/>
    </linearGradient>
  </defs>
  <rect width="904" height="904" fill="#0D3652"/>
  <g transform="translate(0.000000,904.000000) scale(0.100000,-0.100000)" fill="#44A0D6" stroke="none">
        <path d="M1690 6345 c-238 -37 -383 -151 -457 -356 -79 -223 -4 -443 185 -542 111 -58 132 -60 645 -66 574 -7 546 5 473 -208 -19 -54 -102 -293 -185 -531 -156 -449 -166 -486 -130 -518 36 -32 594 -29 661 4 102 51 141 114 254 414 42 111 117 304 166 428 50 124 128 329 175 455 46 127 98 254 116 284 125 208 469 291 713 171 119 -58 188 -149 219 -289 24 -102 44 -124 110 -119 211 18 422 307 385 527 -31 185 -149 306 -337 346 -97 21 -2861 20 -2993 0z M7105 6347 c-119 -31 -245 -128 -313 -239 -29 -49 -136 -304 -367 -873 -79 -195 -222 -545 -304 -745 -103 -249 -112 -243 -277 168 -70 176 -133 317 -156 352 -107 160 -279 230 -493 201 -201 -28 -357 -177 -498 -479 -35 -74 -34 -134 3 -359 23 -143 35 -173 65 -173 30 0 44 19 111 150 97 192 180 260 319 260 169 -1 225 -66 344 -400 232 -650 238 -662 332 -711 131 -66 253 13 349 228 138 311 219 360 615 372 241 7 249 9 289 89 45 89 614 1527 625 1580 54 256 -100 495 -364 566 -83 23 -218 29 -280 13z M3950 5726 c-68 -20 -102 -40 -149 -91 -48 -52 -52 -62 -126 -265 -29 -80 -120 -316 -203 -525 -82 -209 -171 -438 -196 -510 -52 -145 -92 -213 -169 -287 -142 -136 -157 -140 -609 -147 -447 -7 -392 30 -518 -345 -109 -324 -116 -389 -59 -560 127 -375 682 -480 980 -186 138 136 171 198 285 524 326 933 386 1078 430 1035 15 -16 45 -286 63 -594 6 -93 18 -233 26 -310 8 -77 15 -167 15 -200 0 -113 37 -323 68 -389 128 -271 499 -328 717 -111 69 69 123 166 248 450 171 386 192 425 232 425 36 0 50 -24 171 -301 140 -320 165 -367 228 -436 356 -389 1010 -330 1281 117 30 50 296 701 317 776 23 86 -22 108 -209 101 -223 -8 -271 -39 -358 -232 -113 -253 -221 -359 -395 -386 -138 -21 -243 13 -341 110 -82 83 -114 153 -270 601 -119 339 -157 410 -221 410 -56 0 -83 -32 -168 -201 -95 -189 -128 -241 -179 -275 -115 -76 -236 -23 -281 122 -21 68 -64 315 -75 434 -3 36 -15 126 -25 200 -10 74 -28 205 -40 290 -77 565 -84 604 -117 659 -57 91 -219 136 -353 97z"/>
  </g>
  <rect width="904" height="904" fill="url(#sheen)"/>
  <rect x="14" y="14" width="876" height="876" rx="188" fill="none" stroke="url(#rim)" stroke-width="10"/>
</svg>
