<svg width="181" height="85" viewBox="0 0 181 85" fill="none" xmlns="http://www.w3.org/2000/svg">
<path d="M46.278 1.72795L41.904 18.144L27.864 17.604L23.004 39.528H7.39804L14.364 17.604L3.90243e-05 18.144L4.48204 1.72795H46.278ZM45.5503 12.528H59.9683L56.5663 22.248H57.2143C58.6183 19.08 60.5803 16.542 63.1003 14.634C65.6563 12.69 68.3383 11.718 71.1463 11.718C73.4863 11.718 75.2683 12.186 76.4923 13.122L71.4703 28.458C71.0383 27.414 70.1923 26.514 68.9323 25.758C67.7083 25.002 66.3583 24.624 64.8823 24.624C61.7503 24.624 59.1943 25.38 57.2143 26.892C55.2343 28.404 54.0643 30.204 53.7043 32.292L52.4083 39.528H38.3143L45.5503 12.528ZM77.825 17.172C81.101 13.536 85.079 11.718 89.759 11.718C92.999 11.718 95.627 12.582 97.643 14.31C99.659 16.002 100.667 18.054 100.667 20.466C100.667 20.826 100.649 21.186 100.613 21.546H101.423L101.909 12.528H117.515L110.225 39.528H95.105L98.831 31.266H98.021C96.689 34.11 94.745 36.342 92.189 37.962C89.633 39.546 86.843 40.338 83.819 40.338C80.579 40.338 77.951 39.348 75.935 37.368C73.883 35.388 72.857 32.85 72.857 29.754C72.857 25.002 74.513 20.808 77.825 17.172ZM86.951 23.814C86.951 24.894 88.247 26.046 90.839 27.27C93.467 28.494 95.681 29.106 97.481 29.106C98.813 29.106 99.479 28.602 99.479 27.594C99.479 26.442 98.183 25.29 95.591 24.138C93.035 22.986 90.803 22.41 88.895 22.41C87.599 22.41 86.951 22.878 86.951 23.814ZM116.642 25.11L120.044 12.528H139.16L131.924 39.528H117.884L121.718 25.11H116.642ZM124.796 5.50795C125.228 3.85195 126.29 2.51995 127.982 1.51195C129.71 0.503951 131.798 -4.87566e-05 134.246 -4.87566e-05C136.658 -4.87566e-05 138.368 0.431952 139.376 1.29595C140.42 2.12395 140.942 3.07795 140.942 4.15795C140.942 4.58995 140.87 5.03995 140.726 5.50795C140.294 7.16395 139.214 8.49595 137.486 9.50395C135.758 10.512 133.688 11.016 131.276 11.016C128.864 11.016 127.136 10.584 126.092 9.71995C125.084 8.85595 124.58 7.90195 124.58 6.85795C124.58 6.42595 124.652 5.97595 124.796 5.50795ZM133.974 39.528L141.21 12.528H156.384L152.982 22.248H153.684C155.124 19.044 157.068 16.488 159.516 14.58C162 12.672 164.646 11.718 167.454 11.718C170.55 11.718 172.836 12.348 174.312 13.608C175.824 14.868 176.58 16.632 176.58 18.9C176.58 20.124 176.364 21.582 175.932 23.274L171.558 39.528H156.654L160.326 30.24C160.794 29.124 161.028 28.224 161.028 27.54C161.028 26.64 160.704 25.938 160.056 25.434C159.444 24.894 158.562 24.624 157.41 24.624C155.862 24.624 154.422 25.164 153.09 26.244C151.794 27.324 150.966 28.764 150.606 30.564L148.878 39.528H133.974Z" fill="#F6F4F0"/>
<path d="M16.2002 45.728H36.6122L30.4022 68.3L31.2662 68.408L42.2822 47.942H51.8942V68.408L52.8662 68.3L58.8062 45.728H79.2182L59.8862 83.528H41.4182L44.0642 61.118H43.0922L33.6962 83.528H15.2282L16.2002 45.728ZM72.38 69.11L75.782 56.528H94.898L87.662 83.528H73.622L77.456 69.11H72.38ZM80.534 49.508C80.966 47.852 82.028 46.52 83.72 45.512C85.448 44.504 87.536 44 89.984 44C92.396 44 94.106 44.432 95.114 45.296C96.158 46.124 96.68 47.078 96.68 48.158C96.68 48.59 96.608 49.04 96.464 49.508C96.032 51.164 94.952 52.496 93.224 53.504C91.496 54.512 89.426 55.016 87.014 55.016C84.602 55.016 82.874 54.584 81.83 53.72C80.822 52.856 80.318 51.902 80.318 50.858C80.318 50.426 80.39 49.976 80.534 49.508ZM92.5207 70.19C94.5007 71.054 96.8047 71.756 99.4327 72.296C102.097 72.8 104.455 73.052 106.507 73.052C108.703 73.052 110.269 72.98 111.205 72.836C112.177 72.692 112.663 72.368 112.663 71.864C112.663 71.504 112.015 71.252 110.719 71.108C109.459 70.964 107.911 70.838 106.075 70.73C104.275 70.622 102.457 70.442 100.621 70.19C98.8207 69.902 97.2727 69.326 95.9767 68.462C94.7167 67.598 94.0867 66.446 94.0867 65.006C94.0867 62.882 95.0947 61.1 97.1107 59.66C99.1627 58.22 101.611 57.212 104.455 56.636C107.335 56.024 110.431 55.718 113.743 55.718C118.459 55.718 122.815 56.276 126.811 57.392L123.895 68.678C122.707 67.994 121.051 67.418 118.927 66.95C116.839 66.482 114.625 66.248 112.285 66.248C108.613 66.248 106.777 66.608 106.777 67.328C106.777 67.616 107.407 67.832 108.667 67.976C109.963 68.084 111.511 68.228 113.311 68.408C115.147 68.552 116.965 68.804 118.765 69.164C120.565 69.488 122.095 70.118 123.355 71.054C124.651 71.954 125.299 73.106 125.299 74.51C125.299 76.202 124.687 77.714 123.463 79.046C122.239 80.342 120.601 81.368 118.549 82.124C116.533 82.88 114.355 83.438 112.015 83.798C109.675 84.158 107.263 84.338 104.779 84.338C102.655 84.338 99.9907 84.158 96.7867 83.798C93.6187 83.438 91.0987 83.024 89.2267 82.556L92.5207 70.19ZM126.585 72.728C126.693 70.604 127.251 68.57 128.259 66.626C129.231 64.646 130.617 62.828 132.417 61.172C134.217 59.516 136.575 58.202 139.491 57.23C142.407 56.222 145.683 55.718 149.319 55.718C154.323 55.718 158.049 56.672 160.497 58.58C162.945 60.488 164.169 62.918 164.169 65.87C164.169 66.194 164.151 66.5 164.115 66.788C164.043 68.66 163.611 70.136 162.819 71.216H139.653C139.653 71.252 139.653 71.306 139.653 71.378C139.653 71.702 139.959 72.044 140.571 72.404C141.219 72.728 142.209 72.998 143.541 73.214C144.873 73.394 146.385 73.484 148.077 73.484C153.153 73.484 157.509 72.854 161.145 71.594L158.391 82.124C154.035 83.6 148.941 84.338 143.109 84.338C137.565 84.338 133.407 83.366 130.635 81.422C127.899 79.478 126.531 76.868 126.531 73.592C126.531 73.304 126.549 73.016 126.585 72.728ZM140.301 69.164H151.479C151.479 69.056 151.479 68.948 151.479 68.84C151.479 68.012 151.065 67.346 150.237 66.842C149.409 66.302 148.239 66.032 146.727 66.032C143.595 66.032 141.453 67.076 140.301 69.164Z" fill="#00A6FB"/>
</svg>
